<svg width="24" height="16" viewBox="0 0 24 16" fill="none" xmlns="http://www.w3.org/2000/svg">
<rect x="0.5" y="0.5" width="22.3333" height="15" rx="2" fill="white" stroke="#D9D9D9"/>
<path d="M7.9451 8.37034C7.75801 9.27212 6.94579 9.95023 5.97231 9.95023C5.74896 9.95023 5.53397 9.91442 5.33338 9.84846L4.88623 11.1604C5.22748 11.2726 5.59259 11.3333 5.97231 11.3333C7.62702 11.3333 9.00731 10.1802 9.32539 8.64789L7.9451 8.37034Z" fill="#EC412A"/>
<path fill-rule="evenodd" clip-rule="evenodd" d="M15.9685 5.40746V9.20097L16.6492 9.47384L16.3272 10.2221L15.654 9.95145C15.5026 9.88797 15.4001 9.79126 15.3223 9.68204C15.2476 9.57028 15.1922 9.41754 15.1922 9.21141V5.40746H15.9685ZM10.8054 8.22692C10.8223 7.14209 11.7462 6.27613 12.8672 6.29275C13.8187 6.30718 14.6071 6.95162 14.8141 7.80876L11.1341 9.32968C10.9204 9.01367 10.7989 8.6335 10.8054 8.22692ZM11.6474 8.37905C11.6424 8.33353 11.6388 8.28686 11.6402 8.23977C11.6507 7.60062 12.1946 7.09062 12.8551 7.10121C13.2146 7.10585 13.5338 7.26505 13.7496 7.51143L11.6474 8.37905ZM13.6722 9.08329C13.4504 9.29191 13.1496 9.41902 12.8175 9.41445C12.5899 9.41077 12.379 9.34487 12.1997 9.23507L11.7551 9.92004C12.0596 10.1061 12.4186 10.2162 12.8056 10.222C13.3689 10.2301 13.8824 10.0161 14.2557 9.6628L13.6722 9.08329ZM18.8017 7.10112C18.6691 7.10112 18.5417 7.12185 18.4226 7.16049L18.1577 6.39293C18.3599 6.32765 18.5764 6.29219 18.8017 6.29219C19.785 6.29219 20.6052 6.96757 20.7933 7.86473L19.9733 8.02638C19.8628 7.49837 19.3803 7.10112 18.8017 7.10112ZM17.4554 9.72908L18.0095 9.12321C17.762 8.91136 17.6062 8.60196 17.6062 8.25709C17.6062 7.91257 17.762 7.60332 18.0093 7.39163L17.4548 6.78576C17.0344 7.14574 16.7696 7.67175 16.7696 8.25709C16.7696 8.84316 17.0346 9.36898 17.4554 9.72908ZM18.8017 9.4134C19.3797 9.4134 19.8621 9.0165 19.9733 8.48926L20.793 8.6516C20.604 9.5478 19.784 10.2223 18.8017 10.2223C18.5762 10.2223 18.3594 10.1867 18.1567 10.1211L18.4222 9.3538C18.5415 9.39233 18.669 9.4134 18.8017 9.4134Z" fill="black"/>
<path d="M3.68969 10.5926L4.5164 9.5252C4.14738 9.15194 3.91447 8.60702 3.91447 7.99962C3.91447 7.39267 4.14716 6.84774 4.51607 6.47477L3.68893 5.40746C3.06189 6.0416 2.66675 6.96791 2.66675 7.99962C2.66675 9.03186 3.06247 9.9585 3.68969 10.5926Z" fill="#1BA7DE"/>
<path d="M5.33275 6.15021C5.53332 6.08444 5.74788 6.04874 5.97114 6.04874C6.94549 6.04874 7.75822 6.72769 7.94468 7.62963L9.32539 7.35345C9.00858 5.82056 7.62738 4.66666 5.97114 4.66666C5.59195 4.66666 5.22695 4.72726 4.88623 4.83889L5.33275 6.15021Z" fill="#FECA2F"/>
</svg>
