<svg width="22" height="16" viewBox="0 0 22 16" fill="none" xmlns="http://www.w3.org/2000/svg">
<path d="M14.3315 8.49837C14.2608 8.91735 14.9518 8.86756 15.198 8.69229C15.3799 8.56279 15.4307 8.33163 15.4719 8.14419C15.4732 8.13831 15.4745 8.13248 15.4757 8.1267C14.9111 8.07644 14.3902 8.15039 14.3315 8.49837Z" fill="#B82126"/>
<path d="M18.0532 8.4499C18.0605 8.6899 18.2204 8.83465 18.542 8.82963C19.1257 8.82053 19.2216 8.36093 19.3105 7.93484C19.3362 7.81165 19.3613 7.69126 19.3975 7.58537C19.2219 7.54176 19.0483 7.50123 18.8087 7.52071C18.2939 7.56259 18.0404 8.02957 18.0532 8.4499Z" fill="#B82126"/>
<path d="M6.44363 8.563C6.49289 8.89423 7.12123 8.89724 7.37682 8.70038C7.58849 8.53734 7.76415 8.13436 7.69901 7.8116C7.62395 7.43983 6.88419 7.46681 6.63244 7.69037C6.6112 7.76759 6.59331 7.84899 6.57478 7.93334C6.56151 7.99374 6.5479 8.05566 6.53249 8.11864C6.52217 8.16081 6.50886 8.20314 6.49557 8.24543C6.46185 8.35267 6.42822 8.45963 6.44363 8.563Z" fill="#B82126"/>
<path d="M6.63244 7.4884C6.63611 7.48617 6.64003 7.48394 6.64383 7.48171C6.64456 7.48723 6.63874 7.48799 6.63244 7.4884Z" fill="#B82126"/>
<path d="M8.89887 7.91663H10.0209C10.1226 7.60454 9.87623 7.50308 9.53208 7.51265C9.16645 7.52281 8.93437 7.72902 8.89887 7.91663Z" fill="#B82126"/>
<path fill-rule="evenodd" clip-rule="evenodd" d="M3.75934 4.53125H22C21.6285 5.86314 21.2639 7.16547 20.9008 8.4626C20.8222 8.74314 20.7438 9.02344 20.6653 9.30375C20.648 9.36571 20.6306 9.42797 20.6132 9.49031C20.5173 9.83466 20.4207 10.1813 20.3205 10.4928C20.0659 11.285 19.1236 11.4959 17.7513 11.4959H0C0.212381 10.7573 0.417778 10.0027 0.624442 9.24334C0.876551 8.31705 1.13054 7.38384 1.4014 6.46453C1.43496 6.35065 1.46507 6.23444 1.49525 6.11798C1.55227 5.89797 1.6095 5.6771 1.69058 5.46957C1.92836 4.86101 2.75188 4.56589 3.75934 4.53125ZM14.3641 7.51373C14.3846 7.4554 14.4051 7.39706 14.4204 7.33489C14.5219 7.33275 14.6377 7.32595 14.7597 7.31878C15.3171 7.28602 16.0023 7.24576 16.0312 7.60959C16.042 7.74431 15.9982 7.89045 15.9532 8.04079C15.9336 8.10652 15.9136 8.17306 15.8979 8.2398C15.8954 8.25038 15.893 8.26091 15.8905 8.27141C15.8328 8.51655 15.7799 8.74094 15.7757 9.01549H15.3647C15.3582 8.91647 15.3776 8.83632 15.398 8.75694C15.2011 8.98622 14.6324 9.15309 14.1649 9.00742C13.9221 8.93175 13.7953 8.66069 13.9093 8.38524C14.0794 7.97401 14.7264 7.87811 15.5202 7.93279L15.5211 7.93109C15.5562 7.8602 15.6036 7.76441 15.5758 7.67421C15.4912 7.40058 14.6134 7.5582 14.3315 7.60959C14.3418 7.57723 14.353 7.54548 14.3641 7.51373ZM19.442 7.35911C19.5129 7.11986 19.5676 6.86879 19.6086 6.60771H20.0863C20.0334 6.82651 19.9754 7.04161 19.9175 7.25672C19.7655 7.82078 19.6135 8.38484 19.553 9.01549H19.1198C19.1215 8.9478 19.1355 8.88898 19.1494 8.83015C19.1545 8.80857 19.1596 8.78699 19.1642 8.76498C19.1583 8.75088 19.1347 8.77866 19.1105 8.8072C19.0982 8.82166 19.0857 8.83632 19.0753 8.84582C19.0342 8.88331 18.9708 8.93734 18.9087 8.96702C18.588 9.12036 17.9529 9.07673 17.7311 8.89426C17.6023 8.78838 17.5669 8.63996 17.5644 8.49028C17.5515 7.71638 18.2701 7.08937 19.442 7.35911ZM6.64383 7.48171C6.85744 7.35629 7.35024 7.22443 7.75457 7.33489C8.58656 7.56218 8.10817 8.72309 7.4879 8.96702C7.18731 9.0852 6.47495 9.14367 6.36585 8.83773C6.30007 9.03646 6.25791 9.25236 6.21575 9.46826C6.1962 9.56837 6.17665 9.66848 6.15474 9.76689H5.67704C5.89143 8.96937 6.09456 8.16372 6.26586 7.33489H6.67692C6.6751 7.36185 6.66768 7.38472 6.66025 7.40759C6.65282 7.43047 6.64538 7.45335 6.64357 7.48033C6.64374 7.48083 6.64379 7.48124 6.64383 7.48171ZM8.7211 7.55302C8.92846 7.39415 9.22024 7.3219 9.56543 7.30258C9.95919 7.28052 10.3461 7.33988 10.4542 7.56921C10.5157 7.69964 10.4783 7.84024 10.4419 7.97665C10.4299 8.02192 10.4179 8.06672 10.4098 8.11054C9.89388 8.10091 9.35846 8.09862 8.84331 8.11054C8.76333 8.35867 8.76476 8.64419 9.00995 8.75694C9.33469 8.90625 9.88292 8.78631 10.1987 8.70038C10.1909 8.735 10.1814 8.76843 10.1719 8.80187C10.156 8.85774 10.1402 8.91362 10.132 8.97508C9.36553 9.11076 8.40724 9.13084 8.32113 8.57109C8.26079 8.17875 8.46677 7.74791 8.7211 7.55302ZM5.35484 7.35911C5.3539 7.34766 5.35303 7.33624 5.36597 7.33489H5.84368C5.67889 7.87491 5.54741 8.43911 5.43262 9.01549H4.95492C5.10715 8.47713 5.24959 7.93163 5.35484 7.35911ZM16.9201 7.60149C17.0573 7.44705 17.4088 7.18945 17.831 7.34295C17.8123 7.38694 17.8011 7.43638 17.7898 7.48581C17.7821 7.51958 17.7745 7.55334 17.7644 7.58537C17.0166 7.43155 16.8667 7.94308 16.7645 8.40949C16.7518 8.46729 16.7383 8.52133 16.7252 8.57367C16.6888 8.7192 16.6557 8.85166 16.6534 9.01549H16.1646C16.3246 8.47199 16.4618 7.91196 16.5756 7.33489H16.9978C16.9803 7.37398 16.9707 7.41882 16.9611 7.46366C16.9507 7.51202 16.9404 7.56037 16.9201 7.60149ZM12.4206 8.29636C12.4096 8.40021 12.421 8.53683 12.465 8.61956C12.6166 8.90424 13.2684 8.83729 13.6094 8.70844C13.5988 8.74494 13.5901 8.78276 13.5814 8.82057C13.5699 8.87041 13.5584 8.92024 13.5427 8.96702C12.9187 9.12375 12.1481 9.10151 11.9762 8.69229C11.8294 8.34258 12.0371 7.78678 12.3539 7.54496C12.6777 7.29793 13.2882 7.2504 13.9315 7.32683C13.9247 7.36425 13.9164 7.40054 13.908 7.43682C13.8956 7.49048 13.8832 7.54413 13.876 7.60149C13.4837 7.50179 12.9919 7.4724 12.7428 7.65C12.5623 7.77865 12.4453 8.06289 12.4206 8.29636ZM11.2875 7.61768C11.4419 7.42072 11.7748 7.21047 12.1984 7.33489C12.1928 7.37327 12.1826 7.40837 12.1725 7.44348C12.1594 7.48847 12.1464 7.53347 12.1429 7.58537C11.6946 7.46898 11.3839 7.68234 11.2652 7.93279C11.1591 8.1567 11.114 8.44606 11.0726 8.71254C11.056 8.81906 11.04 8.92192 11.0208 9.01549H10.5431C10.5624 8.94181 10.5818 8.86823 10.6013 8.79466C10.7274 8.31699 10.8536 7.83931 10.943 7.33489H11.3652C11.3538 7.37215 11.3447 7.41104 11.3355 7.44993C11.3219 7.50764 11.3084 7.56534 11.2875 7.61768ZM4.27723 7.60959C4.35432 7.29398 4.43119 6.97821 4.49943 6.65618H5.05491C4.83642 7.42377 4.6521 8.21621 4.47722 9.01549H3.93282C3.98169 8.79012 4.03879 8.57076 4.09589 8.3514C4.139 8.1858 4.18211 8.02019 4.22167 7.852C3.81716 7.82398 3.32197 7.83329 2.88706 7.84147C2.84241 7.84231 2.7984 7.84313 2.75518 7.84391C2.65909 8.16519 2.58682 8.5038 2.51454 8.84243C2.50222 8.90014 2.4899 8.95786 2.47746 9.01549H1.93311C2.08139 8.47881 2.21054 7.92822 2.3397 7.37762C2.3962 7.13675 2.4527 6.89588 2.51081 6.65618H3.04402C2.9998 6.8089 2.96164 6.96605 2.92348 7.12318C2.88438 7.28421 2.84528 7.44524 2.79965 7.60149C3.1801 7.62212 3.5783 7.61742 3.97484 7.61274C4.07585 7.61155 4.17676 7.61036 4.27723 7.60959ZM5.93258 6.65618C6.07269 6.74665 5.95005 6.964 5.8548 7.01169C5.7942 7.04203 5.59029 7.07691 5.49927 7.01169C5.40583 6.94471 5.46113 6.76444 5.52153 6.70465C5.55906 6.66747 5.61431 6.64375 5.71038 6.63196C5.81391 6.61922 5.88819 6.62753 5.93258 6.65618Z" fill="#B82126"/>
</svg>
